<?xml version="1.0" encoding="UTF-8" standalone="no"?>
<!-- Created with Serif DrawPlus 12,0,4,27 (May 24, 08:37:51) (http://www.serif.com) -->
<svg version="1.1" xmlns="http://www.w3.org/2000/svg" xmlns:xlink="http://www.w3.org/1999/xlink" width="622.899" height="297.717">
	<g id="dp_group001" transform="matrix(1,0,0,1,-86.3787,-175.207)">
		<path id="dp_path002" fill="#001dff" fill-rule="evenodd" fill-opacity="0.533333" stroke="#001dff" stroke-opacity="0.290196" stroke-width="1.33333" d="M 255.66,192.857 C 347.101,192.857 421.229,255.403 421.229,332.556 C 421.229,409.709 347.101,472.255 255.66,472.255 L 241.343,470.636 L 227.359,467.984 L 213.812,464.333 L 200.801,459.729 L 188.42,454.221 L 176.755,447.869 L 165.884,440.735 L 155.883,432.885 L 146.813,424.395 L 138.731,415.34 L 131.684,405.801 L 125.708,395.86 L 120.836,385.601 L 117.085,375.112 L 114.464,364.477 L 112.977,353.783 L 112.616,343.115 L 113.361,332.556 L 115.192,322.188 L 118.069,312.087 L 121.957,302.329 L 126.804,292.984 L 132.552,284.121 L 139.144,275.797 L 146.509,268.071 L 154.576,260.991 L 163.268,254.6 L 172.503,248.939 L 182.199,244.035 L 192.269,239.913 L 202.625,236.593 L 213.183,234.084 L 223.851,232.389 L 234.543,231.505 L 245.175,231.423 L 255.66,232.127 L 265.92,233.596 L 275.88,235.801 L 285.463,238.709 L 294.6,242.284 L 303.231,246.48 L 311.295,251.251 L 318.74,256.545 L 325.521,262.308 L 331.597,268.484 L 336.936,275.013 L 341.512,281.835 L 345.304,288.887 L 348.303,296.107 L 350.5,303.431 L 351.899,310.799 L 352.508,318.148 L 352.34,325.42 L 351.417,332.556 L 349.764,339.501 L 347.415,346.207 L 344.407,352.62 L 340.781,358.696 L 336.587,364.396 L 331.869,369.68 L 326.685,374.517 L 321.091,378.88 L 315.143,382.744 L 308.9,386.092 L 302.427,388.909 L 295.78,391.189 L 289.025,392.928 L 282.22,394.127 L 275.424,394.792 L 268.696,394.935 L 262.089,394.569 L 255.66,393.716 L 249.456,392.396 L 243.523,390.637 L 237.904,388.471 L 232.637,385.927 L 227.759,383.041 L 223.296,379.853 L 219.275,376.4 L 215.715,372.721 L 212.633,368.86 L 210.037,364.857 L 207.932,360.753 L 206.321,356.591 L 205.199,352.409 L 204.553,348.249 L 204.376,344.149 L 204.647,340.145 L 205.345,336.269 L 206.445,332.556 L 207.92,329.032 L 209.74,325.724 L 211.868,322.656 L 214.273,319.847 L 216.916,317.312 L 219.756,315.067 L 222.759,313.119 L 225.883,311.475 L 229.088,310.136 L 232.336,309.103 L 235.588,308.369 L 238.811,307.931 L 241.964,307.775 L 245.019,307.887 L 247.941,308.252 L 250.707,308.851 L 253.287,309.663 L 255.66,310.665 L 257.808,311.836 L 259.716,313.147 L 261.371,314.572 L 262.764,316.087 L 263.892,317.66 L 264.753,319.267 L 265.349,320.88 L 265.688,322.472 L 265.777,324.02 L 265.631,325.497 L 265.261,326.883 L 264.692,328.156 L 263.94,329.299 L 263.032,330.293 L 261.988,331.125 L 260.839,331.787 L 259.611,332.265 L 258.333,332.556 L 257.036,332.657 L 255.66,332.556 L 254.373,332.455 L 253.076,332.544 L 251.795,332.821 L 250.563,333.288 L 249.407,333.936 L 248.356,334.757 L 247.436,335.741 L 246.673,336.873 L 246.089,338.139 L 245.708,339.517 L 245.545,340.989 L 245.619,342.532 L 245.939,344.123 L 246.517,345.736 L 247.361,347.344 L 248.471,348.92 L 249.847,350.439 L 251.484,351.871 L 253.375,353.191 L 255.507,354.371 L 257.865,355.387 L 260.432,356.212 L 263.184,356.828 L 266.099,357.209 L 269.144,357.339 L 272.293,357.201 L 275.511,356.781 L 278.763,356.068 L 282.012,355.056 L 285.223,353.739 L 288.352,352.115 L 291.364,350.188 L 294.217,347.961 L 296.875,345.447 L 299.296,342.656 L 301.445,339.604 L 303.287,336.312 L 304.785,332.801 L 305.912,329.1 L 306.64,325.235 L 306.939,321.237 L 306.793,317.143 L 306.181,312.987 L 305.091,308.805 L 303.512,304.641 L 301.441,300.532 L 298.879,296.52 L 295.829,292.648 L 292.301,288.955 L 288.312,285.485 L 283.879,282.277 L 279.027,279.371 L 273.787,276.803 L 268.189,274.609 L 262.277,272.823 L 256.089,271.472 L 249.673,270.587 L 243.079,270.185 L 236.356,270.293 L 229.564,270.923 L 222.756,272.085 L 215.996,273.787 L 209.341,276.031 L 202.852,278.812 L 196.593,282.124 L 190.623,285.953 L 185.003,290.283 L 179.789,295.088 L 175.039,300.344 L 170.807,306.016 L 167.14,312.068 L 164.089,318.46 L 161.695,325.145 L 159.993,332.077 L 159.02,339.201 L 158.799,346.467 L 159.353,353.812 L 160.699,361.181 L 162.841,368.511 L 165.787,375.739 L 169.525,382.804 L 174.048,389.643 L 179.336,396.193 L 185.363,402.396 L 192.097,408.191 L 199.499,413.517 L 207.523,418.325 L 216.116,422.561 L 225.221,426.179 L 234.776,429.135 L 244.712,431.388 L 254.955,432.908 L 265.427,433.665 L 276.052,433.639 L 286.743,432.809 L 297.415,431.169 L 307.981,428.715 L 318.356,425.449 L 328.448,421.383 L 338.172,416.531 L 347.44,410.92 L 356.171,404.579 L 364.284,397.544 L 371.699,389.86 L 378.345,381.576 L 384.153,372.747 L 389.063,363.432 L 393.017,353.7 L 395.965,343.621 L 397.868,333.268 L 398.689,322.72 L 398.403,312.056 L 396.993,301.361 L 394.449,290.72 L 390.775,280.217 L 385.979,269.941 L 380.077,259.976 L 373.101,250.407 L 365.089,241.316 L 356.084,232.784 L 346.144,224.888 L 335.331,217.703 L 323.717,211.296 L 311.381,205.729 L 298.411,201.063 L 284.897,197.347 L 270.94,194.624 Z "/>
		<g id="dp_dp003" transform="matrix(1,0,0,1,88.6013,341.816)">
			<path id="dp_path004" fill="black" fill-opacity="0.92549" d="M -2.13867,-110.239 L 27.74,-110.239 L 95.1053,-27.6707 L 95.1053,-91.0787 C 95.1053,-97.8547 94.3413,-102.089 92.8,-103.769 C 90.76,-106.045 87.552,-107.184 83.1507,-107.184 L 79.2773,-107.184 L 79.2773,-110.239 L 118.153,-110.239 L 118.153,-107.184 L 114.196,-107.184 C 109.476,-107.184 106.116,-105.768 104.144,-102.949 C 102.936,-101.215 102.325,-97.2573 102.325,-91.0787 L 102.325,1.79067 L 99.368,1.79067 L 26.796,-86.9693 L 26.796,-19.16 C 26.796,-12.384 27.532,-8.14933 29.0173,-6.46933 C 31.1147,-4.19333 34.3213,-3.05467 38.6667,-3.05467 L 42.624,-3.05467 L 42.624,0 L 3.74933,0 L 3.74933,-3.05467 L 7.62267,-3.05467 C 12.3987,-3.05467 15.7867,-4.47067 17.7573,-7.28933 C 18.9653,-9.024 19.576,-12.9813 19.576,-19.16 L 19.576,-95.8 C 16.3827,-99.52 13.9533,-101.964 12.3013,-103.144 C 10.6347,-104.339 8.21867,-105.435 5.012,-106.463 C 3.44267,-106.948 1.05467,-107.184 -2.13867,-107.184 Z "/>
			<path id="dp_path005" fill="black" fill-opacity="0.92549" d="M 138.175,-46.512 C 138.119,-35.4733 140.812,-26.8107 146.227,-20.52 C 151.656,-14.2453 158.043,-11.1067 165.359,-11.1067 C 170.247,-11.1067 174.495,-12.44 178.104,-15.092 C 181.715,-17.744 184.741,-22.34 187.185,-28.8787 L 189.684,-27.2547 C 188.545,-19.7707 185.241,-12.996 179.757,-6.9 C 174.287,-0.818667 167.428,2.22133 159.181,2.22133 C 150.24,2.22133 142.576,-1.264 136.203,-8.21867 C 129.829,-15.1893 126.651,-24.5467 126.651,-36.3067 C 126.651,-49.0387 129.913,-58.9653 136.452,-66.088 C 142.979,-73.2107 151.184,-76.7787 161.055,-76.7787 C 169.399,-76.7787 176.257,-74.0293 181.631,-68.5453 C 187.004,-63.0467 189.684,-55.7027 189.684,-46.512 Z M 138.175,-51.232 L 172.745,-51.232 C 172.468,-55.9667 171.899,-59.312 171.037,-61.256 C 169.677,-64.2693 167.649,-66.6427 164.956,-68.3653 C 162.263,-70.0867 159.459,-70.9467 156.515,-70.9467 C 152.003,-70.9467 147.976,-69.212 144.408,-65.7413 C 140.853,-62.256 138.771,-57.424 138.175,-51.232 Z "/>
		</g>
		<g id="dp_dp006" transform="matrix(1,0,0,1,88.6013,341.816)">
			<path id="dp_path007" fill="black" fill-opacity="0.92549" d="M 195.127,-74.5573 L 226.38,-74.5573 L 226.38,-71.6413 C 223.505,-71.4187 221.617,-70.9053 220.728,-70.0867 C 219.827,-69.2533 219.381,-68.0867 219.381,-66.5467 C 219.381,-64.852 219.84,-62.7973 220.771,-60.3813 L 236.764,-17.66 L 252.815,-52.592 L 248.58,-63.4227 C 247.275,-66.6987 245.567,-68.976 243.457,-70.2387 C 242.263,-71.016 240.041,-71.4747 236.779,-71.6413 L 236.779,-74.5573 L 272.252,-74.5573 L 272.252,-71.6413 C 268.351,-71.4747 265.588,-70.7533 263.964,-69.4613 C 262.88,-68.5733 262.339,-67.1427 262.339,-65.1987 C 262.339,-64.144 262.547,-63.0613 262.992,-61.9507 L 279.888,-19.188 L 295.647,-60.4093 C 296.757,-63.3533 297.313,-65.7133 297.313,-67.4627 C 297.313,-68.504 296.785,-69.42 295.716,-70.2533 C 294.661,-71.072 292.564,-71.5307 289.468,-71.6413 L 289.468,-74.5573 L 312.891,-74.5573 L 312.891,-71.6413 C 308.171,-70.9333 304.699,-67.712 302.477,-61.992 L 277.639,2.22133 L 274.265,2.22133 L 255.619,-45.428 L 233.724,2.22133 L 230.808,2.22133 L 206.928,-60.4093 C 205.359,-64.3933 203.804,-67.088 202.291,-68.4893 C 200.777,-69.8787 198.389,-70.9333 195.127,-71.6413 Z "/>
			<path id="dp_path008" fill="black" fill-opacity="0.92549" d="M 345.38,-115.653 L 345.38,-16.8 C 345.38,-12.148 345.727,-9.052 346.407,-7.53867 C 347.088,-6.02533 348.129,-4.87333 349.545,-4.096 C 350.961,-3.304 353.599,-2.916 357.459,-2.916 L 357.459,0 L 320.805,0 L 320.805,-2.916 C 324.263,-2.916 326.623,-3.26267 327.885,-3.97067 C 329.136,-4.67867 330.135,-5.84533 330.843,-7.46933 C 331.552,-9.08 331.912,-12.204 331.912,-16.8 L 331.912,-84.5533 C 331.912,-92.94 331.717,-98.104 331.343,-100.02 C 330.968,-101.936 330.357,-103.255 329.511,-103.964 C 328.677,-104.657 327.608,-105.019 326.303,-105.019 C 324.887,-105.019 323.109,-104.588 320.944,-103.713 L 319.556,-106.629 L 341.728,-115.653 Z "/>
			<path id="dp_path009" fill="black" fill-opacity="0.92549" d="M 384.895,-115.653 C 387.172,-115.653 389.115,-114.848 390.712,-113.252 C 392.308,-111.655 393.113,-109.712 393.113,-107.435 C 393.113,-105.157 392.308,-103.2 390.712,-101.576 C 389.115,-99.9507 387.172,-99.132 384.895,-99.132 C 382.617,-99.132 380.66,-99.9507 379.036,-101.576 C 377.411,-103.2 376.592,-105.157 376.592,-107.435 C 376.592,-109.712 377.397,-111.655 378.993,-113.252 C 380.591,-114.848 382.561,-115.653 384.895,-115.653 Z M 391.587,-76.7787 L 391.587,-16.8 C 391.587,-12.148 391.92,-9.03867 392.6,-7.49733 C 393.267,-5.956 394.267,-4.804 395.585,-4.05467 C 396.917,-3.29067 399.333,-2.916 402.832,-2.916 L 402.832,0 L 366.735,0 L 366.735,-2.916 C 370.372,-2.916 372.801,-3.26267 374.051,-3.97067 C 375.3,-4.67867 376.287,-5.84533 377.023,-7.46933 C 377.759,-9.08 378.119,-12.204 378.119,-16.8 L 378.119,-45.6787 C 378.119,-53.7733 377.869,-59.0213 377.383,-61.4093 C 377.008,-63.1587 376.411,-64.3667 375.605,-65.0467 C 374.787,-65.7133 373.676,-66.06 372.273,-66.06 C 370.76,-66.06 368.928,-65.6573 366.761,-64.8387 L 365.624,-67.7533 L 388.019,-76.7787 Z "/>
			<path id="dp_path010" fill="black" fill-opacity="0.92549" d="M 432.045,-27.2267 C 427.505,-29.448 424.02,-32.5573 421.591,-36.5427 C 419.161,-40.528 417.939,-44.9427 417.939,-49.76 C 417.939,-57.1467 420.716,-63.492 426.256,-68.8093 C 431.809,-74.1267 438.904,-76.7787 447.553,-76.7787 C 454.648,-76.7787 460.785,-75.0147 465.977,-71.5027 L 481.723,-71.5027 C 484.055,-71.5027 485.401,-71.4333 485.776,-71.2947 C 486.165,-71.1693 486.429,-70.9333 486.596,-70.6 C 486.915,-70.1147 487.081,-69.24 487.081,-67.9893 C 487.081,-66.5733 486.943,-65.588 486.665,-65.0467 C 486.512,-64.7693 486.22,-64.5467 485.817,-64.3933 C 485.401,-64.228 484.027,-64.144 481.68,-64.144 L 471.976,-64.144 C 475.016,-60.2427 476.529,-55.2587 476.529,-49.2053 C 476.529,-42.2627 473.877,-36.3347 468.588,-31.4053 C 463.299,-26.4773 456.189,-24.0187 447.276,-24.0187 C 443.596,-24.0187 439.848,-24.5613 436.016,-25.6573 C 433.669,-23.6307 432.087,-21.8533 431.253,-20.3267 C 430.435,-18.7987 430.019,-17.508 430.019,-16.4387 C 430.019,-15.5227 430.463,-14.648 431.365,-13.7867 C 432.253,-12.9267 434.003,-12.3147 436.599,-11.94 C 438.112,-11.7187 441.903,-11.5093 447.971,-11.3427 C 459.133,-11.052 466.367,-10.6493 469.671,-10.1347 C 474.711,-9.42667 478.737,-7.55333 481.736,-4.512 C 484.749,-1.45733 486.248,2.29067 486.248,6.748 C 486.248,12.8987 483.375,18.66 477.64,24.0467 C 469.185,31.9893 458.161,35.96 444.555,35.96 C 434.1,35.96 425.269,33.5987 418.064,28.8787 C 413.996,26.172 411.969,23.3387 411.969,20.4093 C 411.969,19.1187 412.26,17.8133 412.857,16.508 C 413.773,14.4947 415.676,11.704 418.536,8.12267 C 418.911,7.636 421.673,4.70667 426.811,-0.666667 C 423.979,-2.34667 421.979,-3.86 420.799,-5.17867 C 419.633,-6.512 419.049,-8.02533 419.049,-9.70533 C 419.049,-11.6067 419.827,-13.828 421.368,-16.3827 C 422.909,-18.9373 426.464,-22.548 432.045,-27.2267 Z M 446.124,-72.752 C 442.139,-72.752 438.807,-71.156 436.127,-67.9627 C 433.448,-64.7693 432.101,-59.8813 432.101,-53.2867 C 432.101,-44.7347 433.933,-38.112 437.585,-33.4053 C 440.376,-29.8373 443.916,-28.0453 448.207,-28.0453 C 452.288,-28.0453 455.648,-29.5867 458.285,-32.6693 C 460.911,-35.7507 462.229,-40.5973 462.229,-47.192 C 462.229,-55.8 460.383,-62.5333 456.676,-67.3933 C 453.927,-70.9613 450.413,-72.752 446.124,-72.752 Z M 431.281,0 C 428.768,2.76267 426.852,5.31733 425.561,7.70533 C 424.271,10.08 423.632,12.2733 423.632,14.2587 C 423.632,16.8547 425.2,19.132 428.339,21.076 C 433.753,24.4213 441.569,26.1013 451.788,26.1013 C 461.535,26.1013 468.713,24.38 473.336,20.9373 C 477.96,17.508 480.279,13.828 480.279,9.92667 C 480.279,7.108 478.904,5.10933 476.141,3.91467 C 473.323,2.72133 467.741,2.02667 459.396,1.80533 C 447.207,1.48533 437.835,0.888 431.281,0 Z "/>
			<path id="dp_path011" fill="black" fill-opacity="0.92549" d="M 517.572,-115.653 L 517.572,-61.228 C 523.599,-67.8507 528.375,-72.1 531.915,-73.9733 C 535.441,-75.848 538.968,-76.7787 542.495,-76.7787 C 546.729,-76.7787 550.38,-75.612 553.421,-73.28 C 556.461,-70.9333 558.711,-67.268 560.183,-62.2693 C 561.209,-58.7987 561.724,-52.44 561.724,-43.2067 L 561.724,-16.8 C 561.724,-12.0933 562.099,-8.872 562.863,-7.136 C 563.417,-5.84533 564.333,-4.804 565.639,-4.05467 C 566.957,-3.29067 569.345,-2.916 572.831,-2.916 L 572.831,0 L 536.177,0 L 536.177,-2.916 L 537.885,-2.916 C 541.369,-2.916 543.8,-3.44267 545.16,-4.49867 C 546.52,-5.55333 547.465,-7.108 548.007,-9.164 C 548.173,-10.0387 548.256,-12.5787 548.256,-16.8 L 548.256,-43.2067 C 548.256,-51.3573 547.84,-56.7027 546.992,-59.2573 C 546.145,-61.812 544.799,-63.728 542.952,-65.0053 C 541.105,-66.2827 538.871,-66.9213 536.26,-66.9213 C 533.595,-66.9213 530.817,-66.2133 527.929,-64.8107 C 525.056,-63.3947 521.599,-60.548 517.572,-56.2573 L 517.572,-16.8 C 517.572,-11.7187 517.864,-8.53867 518.433,-7.30267 C 519.003,-6.05333 520.057,-5.012 521.613,-4.17867 C 523.168,-3.332 525.847,-2.916 529.652,-2.916 L 529.652,0 L 492.72,0 L 492.72,-2.916 C 496.024,-2.916 498.635,-3.42933 500.523,-4.45733 C 501.605,-4.99867 502.48,-6.02533 503.133,-7.53867 C 503.785,-9.052 504.105,-12.148 504.105,-16.8 L 504.105,-84.276 C 504.105,-92.7867 503.897,-98.0213 503.495,-99.9787 C 503.092,-101.923 502.467,-103.255 501.633,-103.964 C 500.787,-104.657 499.663,-105.019 498.26,-105.019 C 497.121,-105.019 495.288,-104.588 492.748,-103.713 L 491.609,-106.629 L 513.837,-115.653 Z "/>
			<path id="dp_path012" fill="black" fill-opacity="0.92549" d="M 600.959,-98.9933 L 600.959,-74.5573 L 618.369,-74.5573 L 618.369,-69.004 L 600.959,-68.864 L 600.959,-20.4933 C 600.959,-15.6613 601.639,-12.3987 603.013,-10.7187 C 604.388,-9.03867 606.152,-8.192 608.304,-8.192 C 610.081,-8.192 611.803,-8.74667 613.468,-9.844 C 615.135,-10.94 616.425,-12.5653 617.343,-14.7173 L 620.536,-14.7173 C 618.647,-9.42667 615.968,-5.44267 612.496,-2.76267 C 609.04,-0.0826667 605.457,1.24933 601.779,1.24933 C 599.293,1.24933 596.849,0.556 594.475,-0.833333 C 592.087,-2.22133 590.337,-4.20667 589.199,-6.78933 C 588.061,-9.372 587.492,-13.356 587.492,-18.744 L 587.492,-69.004 L 575.691,-69.004 L 575.691,-71.628 C 578.675,-72.808 581.729,-74.8067 584.853,-77.6253 C 587.977,-80.4573 590.768,-83.8173 593.225,-87.7053 C 594.475,-89.76 596.224,-93.5227 598.46,-98.9933 Z "/>
		</g>
		<g id="dp_dp013" transform="matrix(1,0,0,1,424.683,445.439)">
			<path id="dp_path014" fill="black" fill-opacity="0.643137" d="M 18.156,-27.3 L 18.156,-10.364 C 18.156,-6.68933 18.56,-4.40267 19.3613,-3.51333 C 20.4493,-2.24933 22.096,-1.61733 24.3,-1.61733 L 26.5347,-1.61733 L 26.5347,0 L 1.47067,0 L 1.47067,-1.61733 L 3.67467,-1.61733 C 6.152,-1.61733 7.924,-2.41867 8.98933,-4.028 C 9.56267,-4.91733 9.84933,-7.03467 9.84933,-10.364 L 9.84933,-47.9987 C 9.84933,-51.6733 9.46,-53.96 8.68133,-54.8493 C 7.564,-56.1133 5.888,-56.7453 3.67467,-56.7453 L 1.47067,-56.7453 L 1.47067,-58.3627 L 22.8667,-58.3627 C 28.0867,-58.3627 32.2093,-57.8253 35.2227,-56.7453 C 38.2373,-55.672 40.7733,-53.8573 42.8387,-51.2987 C 44.904,-48.7413 45.94,-45.712 45.94,-42.2067 C 45.94,-37.436 44.3747,-33.5627 41.236,-30.5773 C 38.1053,-27.5867 33.672,-26.0947 27.9467,-26.0947 C 26.5427,-26.0947 25.028,-26.1973 23.396,-26.396 C 21.764,-26.5933 20.0147,-26.8947 18.156,-27.3 Z M 18.156,-29.7467 C 19.6693,-29.46 21.008,-29.248 22.176,-29.1 C 23.352,-28.9613 24.3453,-28.8867 25.1747,-28.8867 C 28.1453,-28.8867 30.7027,-30.048 32.856,-32.364 C 35.0107,-34.68 36.0907,-37.6787 36.0907,-41.3613 C 36.0907,-43.8893 35.576,-46.2413 34.5467,-48.4107 C 33.5253,-50.5853 32.0693,-52.2107 30.1813,-53.2907 C 28.2987,-54.3707 26.16,-54.908 23.764,-54.908 C 22.308,-54.908 20.4413,-54.636 18.156,-54.084 Z "/>
			<path id="dp_path015" fill="black" fill-opacity="0.643137" d="M 63.4933,-40.648 L 63.4933,-31.7387 C 66.8013,-37.6787 70.1973,-40.648 73.6733,-40.648 C 75.2547,-40.648 76.5627,-40.1627 77.5987,-39.2 C 78.6347,-38.2373 79.1493,-37.12 79.1493,-35.848 C 79.1493,-34.724 78.7747,-33.7747 78.0253,-32.996 C 77.276,-32.2173 76.3787,-31.828 75.3427,-31.828 C 74.328,-31.828 73.2027,-32.3267 71.9533,-33.3347 C 70.704,-34.3413 69.7773,-34.8413 69.1747,-34.8413 C 68.6613,-34.8413 68.1027,-34.5547 67.5,-33.9733 C 66.2053,-32.7907 64.868,-30.8427 63.4933,-28.1227 L 63.4933,-9.188 C 63.4933,-7.012 63.7653,-5.37333 64.316,-4.256 C 64.692,-3.484 65.3533,-2.844 66.3013,-2.32267 C 67.2493,-1.80133 68.616,-1.544 70.4027,-1.544 L 70.4027,0 L 50.1893,0 L 50.1893,-1.544 C 52.188,-1.544 53.6733,-1.86 54.6507,-2.492 C 55.364,-2.95467 55.864,-3.68933 56.1507,-4.69733 C 56.2893,-5.18933 56.364,-6.58533 56.364,-8.89467 L 56.364,-24.256 C 56.364,-28.8427 56.268,-31.5773 56.084,-32.452 C 55.9,-33.3267 55.5547,-33.9667 55.0547,-34.3707 C 54.5547,-34.768 53.9307,-34.9733 53.188,-34.9733 C 52.2987,-34.9733 51.292,-34.76 50.1747,-34.3267 L 49.748,-35.8707 L 61.6853,-40.648 Z "/>
			<path id="dp_path016" fill="black" fill-opacity="0.643137" d="M 100.584,-40.648 C 106.553,-40.648 111.353,-38.3773 114.969,-33.8413 C 118.041,-29.968 119.579,-25.5133 119.579,-20.4933 C 119.579,-16.9573 118.733,-13.3853 117.035,-9.76133 C 115.344,-6.14533 113.007,-3.41733 110.037,-1.58 C 107.068,0.257333 103.76,1.176 100.107,1.176 C 94.168,1.176 89.4413,-1.19067 85.9427,-5.932 C 82.98,-9.92267 81.5027,-14.4 81.5027,-19.368 C 81.5027,-22.9853 82.4,-26.5867 84.1933,-30.1587 C 85.9867,-33.7307 88.3533,-36.3773 91.2787,-38.0827 C 94.212,-39.7947 97.3133,-40.648 100.584,-40.648 Z M 99.2467,-37.8547 C 97.7253,-37.8547 96.196,-37.4067 94.66,-36.5027 C 93.124,-35.5987 91.8813,-34.0107 90.9333,-31.7387 C 89.9853,-29.4747 89.5147,-26.564 89.5147,-23.0067 C 89.5147,-17.2667 90.6547,-12.312 92.94,-8.152 C 95.2187,-3.99067 98.232,-1.91067 101.959,-1.91067 C 104.745,-1.91067 107.045,-3.05733 108.853,-5.35867 C 110.663,-7.652 111.567,-11.5987 111.567,-17.1933 C 111.567,-24.1973 110.059,-29.7027 107.045,-33.724 C 105.003,-36.48 102.408,-37.8547 99.2467,-37.8547 Z "/>
			<path id="dp_path017" fill="black" fill-opacity="0.643137" d="M 135.551,-61.2293 C 136.785,-61.2293 137.829,-60.796 138.689,-59.936 C 139.549,-59.076 139.983,-58.032 139.983,-56.7973 C 139.983,-55.592 139.549,-54.5627 138.689,-53.7027 C 137.829,-52.8427 136.785,-52.4093 135.551,-52.4093 C 134.345,-52.4093 133.316,-52.8427 132.456,-53.7027 C 131.596,-54.5627 131.163,-55.592 131.163,-56.7973 C 131.163,-58.032 131.596,-59.076 132.456,-59.936 C 133.316,-60.796 134.345,-61.2293 135.551,-61.2293 Z M 139.248,-40.648 L 139.248,-0.918667 C 139.248,5.836 137.815,10.8493 134.94,14.128 C 132.067,17.3987 128.332,19.0373 123.731,19.0373 C 121.121,19.0373 119.181,18.5667 117.917,17.6187 C 116.652,16.6707 116.02,15.6933 116.02,14.6867 C 116.02,13.6787 116.373,12.8187 117.079,12.0987 C 117.777,11.3853 118.608,11.0253 119.548,11.0253 C 120.299,11.0253 121.063,11.2173 121.835,11.592 C 122.32,11.7907 123.268,12.5173 124.664,13.7747 C 126.061,15.032 127.229,15.656 128.171,15.656 C 128.861,15.656 129.531,15.392 130.184,14.8627 C 130.847,14.3267 131.331,13.436 131.647,12.1867 C 131.964,10.9373 132.117,8.232 132.117,4.06533 L 132.117,-24.036 C 132.117,-28.4093 131.985,-31.2173 131.728,-32.46 C 131.529,-33.4147 131.213,-34.0693 130.787,-34.4293 C 130.353,-34.7893 129.765,-34.9733 129.023,-34.9733 C 128.221,-34.9733 127.252,-34.76 126.105,-34.3267 L 125.503,-35.8707 L 137.396,-40.648 Z "/>
			<path id="dp_path018" fill="black" fill-opacity="0.643137" d="M 156.652,-24.624 C 156.623,-18.78 158.049,-14.1933 160.916,-10.864 C 163.789,-7.54133 167.171,-5.88 171.045,-5.88 C 173.632,-5.88 175.881,-6.58533 177.792,-7.98933 C 179.704,-9.39333 181.305,-11.8267 182.6,-15.2893 L 183.923,-14.4293 C 183.32,-10.4667 181.571,-6.88 178.667,-3.65333 C 175.771,-0.433333 172.14,1.176 167.773,1.176 C 163.04,1.176 158.983,-0.669333 155.609,-4.352 C 152.235,-8.04133 150.552,-12.996 150.552,-19.2213 C 150.552,-25.9613 152.279,-31.2173 155.741,-34.988 C 159.196,-38.7587 163.54,-40.648 168.767,-40.648 C 173.184,-40.648 176.815,-39.192 179.66,-36.2893 C 182.504,-33.3787 183.923,-29.4893 183.923,-24.624 Z M 156.652,-27.1227 L 174.955,-27.1227 C 174.808,-29.6293 174.507,-31.4013 174.051,-32.4307 C 173.331,-34.0253 172.257,-35.2827 170.832,-36.1933 C 169.405,-37.1053 167.921,-37.5613 166.363,-37.5613 C 163.973,-37.5613 161.841,-36.6413 159.953,-34.804 C 158.071,-32.96 156.968,-30.4013 156.652,-27.1227 Z "/>
			<path id="dp_path019" fill="black" fill-opacity="0.643137" d="M 222.6,-14.98 C 221.543,-9.76933 219.461,-5.77733 216.36,-2.992 C 213.265,-0.213333 209.833,1.176 206.077,1.176 C 201.6,1.176 197.697,-0.705333 194.368,-4.46933 C 191.037,-8.22533 189.376,-13.312 189.376,-19.7133 C 189.376,-25.9173 191.221,-30.96 194.912,-34.8333 C 198.601,-38.708 203.027,-40.648 208.193,-40.648 C 212.068,-40.648 215.257,-39.6187 217.749,-37.5613 C 220.248,-35.5093 221.497,-33.3707 221.497,-31.1587 C 221.497,-30.0627 221.145,-29.1813 220.447,-28.5053 C 219.741,-27.8293 218.756,-27.4907 217.492,-27.4907 C 215.801,-27.4907 214.537,-28.0413 213.699,-29.144 C 213.192,-29.7547 212.853,-30.916 212.692,-32.628 C 212.537,-34.3413 211.957,-35.6493 210.951,-36.5467 C 209.951,-37.4213 208.553,-37.8547 206.775,-37.8547 C 203.908,-37.8547 201.6,-36.7893 199.844,-34.6573 C 197.521,-31.828 196.36,-28.1013 196.36,-23.4547 C 196.36,-18.7293 197.513,-14.5533 199.821,-10.9373 C 202.129,-7.32133 205.247,-5.51333 209.179,-5.51333 C 211.987,-5.51333 214.515,-6.46133 216.749,-8.35733 C 218.323,-9.68 219.859,-12.084 221.351,-15.5827 Z "/>
			<path id="dp_path020" fill="black" fill-opacity="0.643137" d="M 239.595,-52.4093 L 239.595,-39.472 L 248.812,-39.472 L 248.812,-36.532 L 239.595,-36.4587 L 239.595,-10.8493 C 239.595,-8.29067 239.955,-6.564 240.683,-5.67467 C 241.411,-4.78533 242.344,-4.33733 243.483,-4.33733 C 244.424,-4.33733 245.335,-4.63067 246.217,-5.212 C 247.099,-5.792 247.783,-6.652 248.268,-7.792 L 249.959,-7.792 C 248.959,-4.99067 247.54,-2.88133 245.703,-1.46267 C 243.872,-0.044 241.976,0.661333 240.028,0.661333 C 238.712,0.661333 237.419,0.294667 236.161,-0.441333 C 234.897,-1.176 233.972,-2.22667 233.369,-3.59467 C 232.765,-4.96133 232.464,-7.07067 232.464,-9.92267 L 232.464,-36.532 L 226.217,-36.532 L 226.217,-37.9213 C 227.797,-38.5453 229.415,-39.604 231.068,-41.096 C 232.721,-42.596 234.199,-44.3747 235.5,-46.4333 C 236.161,-47.52 237.088,-49.512 238.272,-52.4093 Z "/>
			<path id="dp_path021" fill="black" fill-opacity="0.643137" d="M 278.023,-40.648 L 278.023,-27.196 L 276.627,-27.196 C 275.539,-31.408 274.143,-34.2747 272.429,-35.796 C 270.724,-37.3187 268.556,-38.0747 265.917,-38.0747 C 263.911,-38.0747 262.285,-37.5467 261.059,-36.488 C 259.824,-35.4213 259.205,-34.2453 259.205,-32.96 C 259.205,-31.3493 259.669,-29.9747 260.588,-28.828 C 261.477,-27.652 263.285,-26.4107 266.012,-25.0867 L 272.297,-22.036 C 278.125,-19.192 281.037,-15.4507 281.037,-10.7973 C 281.037,-7.21067 279.677,-4.31467 276.964,-2.11733 C 274.245,0.0813333 271.201,1.176 267.843,1.176 C 265.424,1.176 262.668,0.772 259.559,-0.0373333 C 258.611,-0.309333 257.832,-0.441333 257.228,-0.441333 C 256.567,-0.441333 256.052,-0.096 255.677,0.588 L 254.281,0.588 L 254.281,-13.5253 L 255.677,-13.5253 C 256.479,-9.512 258.023,-6.48267 260.287,-4.44667 C 262.557,-2.41067 265.101,-1.396 267.916,-1.396 C 269.901,-1.396 271.517,-1.97733 272.768,-3.13867 C 274.017,-4.3 274.641,-5.68933 274.641,-7.328 C 274.641,-9.30533 273.951,-10.9667 272.561,-12.312 C 271.18,-13.6573 268.401,-15.3547 264.233,-17.4053 C 260.065,-19.4493 257.339,-21.3093 256.06,-22.9773 C 254.773,-24.624 254.135,-26.6973 254.135,-29.2027 C 254.135,-32.452 255.244,-35.1787 257.464,-37.3627 C 259.691,-39.5533 262.565,-40.648 266.093,-40.648 C 267.637,-40.648 269.519,-40.324 271.724,-39.6707 C 273.187,-39.244 274.164,-39.0307 274.649,-39.0307 C 275.105,-39.0307 275.465,-39.1333 275.723,-39.332 C 275.98,-39.5307 276.281,-39.964 276.627,-40.648 Z "/>
		</g>
	</g>
</svg>